# xmcd
#
# Track frame offsets: 
#        150
#        17600
#        30610
#        48300
#        61750
#        80290
#        98550
#        113822
#        133297
#        149647
#        168057
#
# Disc length: 2462 seconds
#
# Revision: 18
# Processed by: cddbd v1.5.2PL0 Copyright (c) Steve Scherf et al.
# Submitted via: ExactAudioCopyFreeDBPlugin 1.0
#
DISCID=87099c0b
DTITLE=椎名林檎 - 無罪モラトリアム
DYEAR=1999
DGENRE=Rock
TTITLE0=正しい街
TTITLE1=歌舞伎町の女王
TTITLE2=丸の内サディスティック
TTITLE3=幸福論 (悦楽編)
TTITLE4=茜さす 帰路照らされど…
TTITLE5=シドと白昼夢
TTITLE6=積木遊び
TTITLE7=ここでキスして。
TTITLE8=同じ夜
TTITLE9=警告
TTITLE10=モルヒネ
EXTD=YEAR: 1999
EXTT0=
EXTT1=
EXTT2=
EXTT3=
EXTT4=
EXTT5=
EXTT6=
EXTT7=
EXTT8=
EXTT9=
EXTT10=
PLAYORDER=
